<?xml version="1.0" encoding="UTF-8"?>
<svg version="1.1" xmlns="http://www.w3.org/2000/svg" width="512" height="512">
<path d="M0 0 C168.96 0 337.92 0 512 0 C512 168.96 512 337.92 512 512 C343.04 512 174.08 512 0 512 C0 343.04 0 174.08 0 0 Z " fill="#000000" transform="translate(0,0)"/>
<path d="M0 0 C6.27 0 12.54 0 19 0 C24.79552549 15.51982364 30.24226405 31.14534275 35.625 46.8125 C37.28277304 51.63188304 38.94173473 56.4508555 40.6015625 61.26953125 C40.99160461 62.40222443 41.38164673 63.5349176 41.7835083 64.70193481 C44.46833361 72.48775504 47.19167441 80.25781422 50 88 C56.87833487 69.20705657 63.43161712 50.30402849 69.97045898 31.39086914 C73.5957188 20.90814887 77.24267898 10.43618102 81 0 C87.6 0 94.2 0 101 0 C101 36.63 101 73.26 101 111 C96.05 111 91.1 111 86 111 C85.67 83.94 85.34 56.88 85 29 C82.36 36.92 79.72 44.84 77 53 C74.61887 59.5750637 72.23455505 66.14084851 69.78027344 72.68774414 C68.73092448 75.48841174 67.68931247 78.29187642 66.6484375 81.09570312 C65.96919393 82.9168323 65.28952296 84.73780214 64.609375 86.55859375 C64.30513611 87.37742538 64.00089722 88.19625702 63.68743896 89.03990173 C61.65157141 94.45637288 59.39142102 99.73051629 57 105 C52.38 105 47.76 105 43 105 C36.28181833 87.52134092 29.7662817 69.97579429 23.375 52.375 C23.01607666 51.38681274 22.65715332 50.39862549 22.28735352 49.38049316 C21.26102522 46.55345084 20.23564662 43.7260671 19.2109375 40.8984375 C18.90098846 40.0433963 18.59103943 39.1883551 18.271698 38.30740356 C17.98658356 37.51937347 17.70146912 36.73134338 17.40771484 35.91943359 C17.03445572 34.88814835 17.03445572 34.88814835 16.65365601 33.83602905 C16.08226115 32.23106016 15.53874087 30.61622261 15 29 C14.67 56.06 14.34 83.12 14 111 C9.38 111 4.76 111 0 111 C0 74.37 0 37.74 0 0 Z " fill="#F8F8F8" transform="translate(78,202)"/>
<path d="M0 0 C7.15505913 5.31011827 7.15505913 5.31011827 9 9 C9.33 5.37 9.66 1.74 10 -2 C14.62 -2 19.24 -2 24 -2 C24 20.77 24 43.54 24 67 C19.38 67 14.76 67 10 67 C9.67 63.37 9.34 59.74 9 56 C8.05125 57.216875 7.1025 58.43375 6.125 59.6875 C1.04843721 65.38093596 -3.93731074 68.50045279 -11.58984375 69.44140625 C-22.046653 69.7705038 -30.5482502 68.10039918 -38.8125 61.5 C-46.28721833 54.36077172 -50.04632532 44.94737812 -50.29321289 34.75585938 C-50.39538564 22.14334531 -48.31566524 14.54377665 -39.3671875 5.19921875 C-28.45172912 -4.94171041 -13.19354778 -7.62441203 0 0 Z " fill="#FAFAFA" transform="translate(322,246)"/>
<path d="M0 0 C6.02469894 4.72810325 9.08536503 10.7467853 10.01159668 18.34698486 C10.1271843 21.38693926 10.11885044 24.39991323 10.05859375 27.44140625 C10.05293396 28.53705902 10.04727417 29.63271179 10.04144287 30.76156616 C10.01923679 34.22562271 9.96906914 37.68860529 9.91796875 41.15234375 C9.89788342 43.51560995 9.87963623 45.87889254 9.86328125 48.2421875 C9.81942356 54.00431354 9.75050545 59.76564722 9.66796875 65.52734375 C4.71796875 65.52734375 -0.23203125 65.52734375 -5.33203125 65.52734375 C-5.34661377 64.14023193 -5.36119629 62.75312012 -5.3762207 61.32397461 C-5.43435423 56.15949197 -5.51158668 50.99543846 -5.59448242 45.83129883 C-5.62766093 43.59959904 -5.65571473 41.36781677 -5.6784668 39.13598633 C-5.71214251 35.92103041 -5.7644661 32.70682555 -5.8203125 29.4921875 C-5.82670242 28.50024887 -5.83309235 27.50831024 -5.8396759 26.48631287 C-5.96024944 20.75770514 -6.52687835 16.56666721 -9.33203125 11.52734375 C-14.34581007 7.36697409 -18.93822763 6.76909161 -25.39453125 7.02734375 C-31.08828105 7.99649265 -34.2329351 10.88135109 -37.74511719 15.30859375 C-43.18100843 24.35013822 -42.11646646 34.95887072 -42.14453125 45.15234375 C-42.16770334 47.13023557 -42.19307426 49.10810292 -42.22070312 51.0859375 C-42.28320283 55.89983098 -42.31581626 60.71308095 -42.33203125 65.52734375 C-46.95203125 65.52734375 -51.57203125 65.52734375 -56.33203125 65.52734375 C-56.33203125 42.75734375 -56.33203125 19.98734375 -56.33203125 -3.47265625 C-51.71203125 -3.47265625 -47.09203125 -3.47265625 -42.33203125 -3.47265625 C-42.00203125 -0.17265625 -41.67203125 3.12734375 -41.33203125 6.52734375 C-40.83703125 5.80546875 -40.34203125 5.08359375 -39.83203125 4.33984375 C-29.13519764 -7.69409406 -13.23306246 -8.35655703 0 0 Z " fill="#FAFAFA" transform="translate(422.33203125,247.47265625)"/>
<path d="M0 0 C1.19367188 -0.01675781 2.38734375 -0.03351563 3.6171875 -0.05078125 C10.02948955 0.61329903 13.94334955 3.56576165 18.125 8.3125 C23.00242103 15.45443794 22.77543003 22.86620143 22.125 31.3125 C20.52571318 37.98904077 16.90316759 42.64858916 11.125 46.3125 C5.09166325 49.21928972 -1.77834712 49.45083782 -8.22265625 47.66015625 C-14.01411695 45.06013632 -18.14902757 40.87516763 -20.91015625 35.17578125 C-23.98617798 26.97782567 -23.78252789 19.70761752 -20.28125 11.6796875 C-15.65893433 3.89878946 -8.85587257 0.02856733 0 0 Z " fill="#020202" transform="translate(308.875,254.6875)"/>
<path d="M0 0 C4.62 0 9.24 0 14 0 C14 37.95 14 75.9 14 115 C9.38 115 4.76 115 0 115 C0 77.05 0 39.1 0 0 Z " fill="#FFFFFF" transform="translate(241,198)"/>
<path d="M0 0 C4.95 0 9.9 0 15 0 C15 22.77 15 45.54 15 69 C10.05 69 5.1 69 0 69 C0 46.23 0 23.46 0 0 Z " fill="#F7F7F7" transform="translate(203,244)"/>
<path d="M0 0 C2.9838283 1.98921886 4.60276841 3.38502568 5.4765625 6.9375 C5.76063594 10.88462572 5.25361564 12.63878985 2.9375 15.9375 C-0.6336219 18.44488346 -2.63040496 19.15331912 -7 19 C-10.02727138 17.2730331 -12.41976665 15.16046671 -14 12 C-14.43023798 8.12785818 -14.31669086 6.47503629 -12.125 3.1875 C-8.56163286 -0.48067206 -4.95088036 -0.8141027 0 0 Z " fill="#F7F7F7" transform="translate(215,202)"/>
</svg>
